<svg xmlns="http://www.w3.org/2000/svg" xmlns:xlink="http://www.w3.org/1999/xlink" viewBox="0 0 366.59 271.36">
  <defs>
    <clipPath id="clip-path">
      <path d="M241.89,174.55A134.71,134.71,0,0,0,311,153.26c-1.84-3.77-3.64-7.36-3.94-8.21,2.27,2.13,4.45,4.29,6.71,6.38a125.4,125.4,0,0,0,21.47-18.37c-2.19-3.22-4.18-6.66-4.77-9.75,1,.32,4.84,3.46,8.25,5.85a113.51,113.51,0,0,0,10.79-15,51.31,51.31,0,0,1-7.67-3.84c.72,0,5.59.17,9.75.24,4.86-8.85,8.36-18.58,7.86-28.65q0-.49-.06-1a180.66,180.66,0,0,0-28.15,7.09c-1.61,4.85-3.77,9.7-3.77,14.75q0-6.72,0-13.42c-.83.3-1.66.6-2.48.92A177.3,177.3,0,0,0,300.18,102c.25,2.42.59,4.42,1.19,4.86-1.39-1-2.72-2.09-4-3.22a168.63,168.63,0,0,0-24.55,17.75c-15.88,13.84-31.88,28.32-33.74,50a3.27,3.27,0,0,0,.56,2.53,2.26,2.26,0,0,0,.29.23A3.32,3.32,0,0,0,241.89,174.55Z" style="fill: none"/>
    </clipPath>
  </defs>
  <g id="Layer_2" data-name="Layer 2">
    <g id="OBJECTS">
      <path d="M133.41,120.82a10.35,10.35,0,1,0,10,10.64A10.28,10.28,0,0,0,133.41,120.82Zm3.88,10.55-6.91,3.79a.24.24,0,0,1-.11,0,.36.36,0,0,1,0-.11l.21-8a.63.63,0,0,1,0-.11l.1,0,6.7,4.17a.18.18,0,0,1,.1.09Z" style="fill: #aad2fd"/>
      <g>
        <g>
          <circle cx="45.17" cy="115.14" r="10.77" style="fill: #8dbd21"/>
          <polyline points="40.04 116.34 44.06 119.56 51.3 110.71" style="fill: none;stroke: #fffffd;stroke-linecap: round;stroke-linejoin: round;stroke-width: 1.8784200000000002px"/>
        </g>
        <g>
          <g>
            <g>
              <g>
                <g>
                  <path d="M297.26,151.13c2.08-.86,4.56-1.66,6.63-.54,3.92,2.13,1.75,7.6-.89,10.76,6.58-5.15,13.7-10.52,22.45-11.19a6.49,6.49,0,0,1,3.38.43,4.59,4.59,0,0,1,1.94,5.66c-.75,2-2.47,3.38-4.14,4.72,11.63-4.33,25.59-3.5,37.26,2.21a3.91,3.91,0,0,1,2.21,2c.32,1-.37,2-1.07,2.79A27.69,27.69,0,0,1,347,176.68c4.4-.26,6.66,6.23,3.9,9.33s-7.81,3.31-12.23,2.72-9-1.73-13.19-.56c2.52-.78,5.3,2.21,4.77,4.69s-3.31,3.93-6,4-5.35-1-7.9-2l-10.79-4.27a4.84,4.84,0,0,0,.43,3.67c-3.28,3.46-9.37,2.37-14.34,1-12.73-3.43-27.5-7-37.53-15.86C261.8,165.8,282.86,157.09,297.26,151.13Z" style="fill: #aad2fd"/>
                  <g>
                    <path d="M335.41,177c.94,0,2.38,0,2.25,1-.19,1.52-5.06.52-4.53-.9.22-.58,1.63-.06,2.28-.1" style="fill: #f0f6f7"/>
                    <path d="M295.55,189.09c.94,0,2.38,0,2.25,1-.19,1.52-5.06.52-4.53-.9.22-.58,1.63-.06,2.28-.1" style="fill: #f0f6f7"/>
                    <path d="M311,188c.79.53,2.07,1.25,1.33,2-1.08,1.09-4.67-2.32-3.35-3.15.54-.33,1.44.83,2,1.15" style="fill: #f0f6f7"/>
                    <path d="M289.79,172.27c.79.53,2.06,1.25,1.33,2-1.08,1.1-4.67-2.32-3.35-3.14.53-.34,1.43.82,2,1.15" style="fill: #f0f6f7"/>
                    <path d="M318.68,164.55c-.54.69-1.28,1.82-2.09,1-1.18-1.14,2.35-4.16,3.26-2.82.37.54-.84,1.26-1.17,1.78" style="fill: #f0f6f7"/>
                    <path d="M284.87,162.66c-.55.69-1.28,1.81-2.09,1-1.18-1.14,2.35-4.16,3.26-2.83.37.55-.84,1.27-1.17,1.79" style="fill: #f0f6f7"/>
                    <path d="M345.44,169.17c-.93.09-2.33.33-2.35-.72,0-1.54,4.91-1.15,4.58.34-.14.6-1.59.26-2.23.38" style="fill: #f0f6f7"/>
                    <path d="M321.89,182.45c-.78-.55-2-1.29-1.28-2,1.11-1.07,4.61,2.42,3.27,3.22-.54.32-1.41-.86-2-1.2" style="fill: #f0f6f7"/>
                    <path d="M337.51,183.1c-.92.09-2.33.33-2.34-.72,0-1.54,4.9-1.15,4.57.34-.13.6-1.59.26-2.23.38" style="fill: #f0f6f7"/>
                    <path d="M300,165.74c-.51.71-1.2,1.87-2,1.12-1.22-1.11,2.18-4.25,3.14-2.94.38.53-.79,1.29-1.11,1.82" style="fill: #f0f6f7"/>
                    <path d="M332.83,166.72c-.51.71-1.2,1.87-2,1.12-1.22-1.11,2.18-4.25,3.14-2.94.39.53-.79,1.29-1.11,1.82" style="fill: #f0f6f7"/>
                    <path d="M274.11,175.59c-.51.71-1.2,1.87-2,1.12-1.22-1.11,2.19-4.25,3.15-2.94.38.53-.8,1.29-1.11,1.82" style="fill: #f0f6f7"/>
                    <path d="M283.64,185.33c.83.46,2.16,1.08,1.51,1.88-1,1.19-4.84-1.94-3.61-2.87.5-.38,1.49.71,2.1,1" style="fill: #f0f6f7"/>
                    <path d="M305.26,179.66c.89-.23,2.22-.69,2.42.35.3,1.54-4.58,1.92-4.52.38,0-.62,1.5-.51,2.1-.73" style="fill: #f0f6f7"/>
                  </g>
                </g>
                <path d="M337.73,170.91a557.39,557.39,0,0,1-98.45,9" style="fill: none;stroke: #304965;stroke-miterlimit: 10;stroke-width: 0.28862299999999996px"/>
              </g>
              <g>
                <g>
                  <path d="M66.67,233.51c-2.16.6-4.72,1.1-6.64-.27-3.64-2.58-.82-7.76,2.18-10.57-7.16,4.32-14.87,8.78-23.63,8.4a6.45,6.45,0,0,1-3.31-.84A4.56,4.56,0,0,1,34,224.39c1-1.87,2.86-3.07,4.68-4.2-12.07,2.9-25.83.4-36.72-6.68a3.83,3.83,0,0,1-2-2.23c-.19-1.06.61-1.95,1.4-2.64a27.67,27.67,0,0,1,19-6.49c-4.4-.28-5.86-7-2.75-9.73s8.15-2.34,12.47-1.23,8.75,2.81,13,2.15c-2.59.47-5-2.84-4.16-5.23s3.75-3.51,6.44-3.24,5.19,1.62,7.61,2.93l10.18,5.55a4.84,4.84,0,0,0,0-3.7c3.67-3,9.58-1.23,14.35.7,12.23,4.94,26.46,10.26,35.35,20.28C103.64,223.21,81.7,229.32,66.67,233.51Z" style="fill: #bfea49"/>
                  <g>
                    <path d="M31.92,203.22c-.93-.14-2.36-.24-2.11-1.26.37-1.48,5.09.1,4.38,1.44-.28.55-1.61-.13-2.27-.18" style="fill: #f0f6f7"/>
                    <path d="M73,196c-.93-.14-2.37-.24-2.11-1.26.37-1.48,5.09.1,4.38,1.44-.28.55-1.62-.13-2.27-.18" style="fill: #f0f6f7"/>
                    <path d="M57.49,195.29c-.72-.61-1.9-1.48-1.08-2.13,1.21-1,4.36,2.86,3,3.52-.57.27-1.33-1-1.87-1.39" style="fill: #f0f6f7"/>
                    <path d="M76.64,213.42c-.72-.62-1.9-1.49-1.08-2.14,1.21-.95,4.36,2.86,3,3.53-.57.26-1.33-1-1.87-1.39" style="fill: #f0f6f7"/>
                    <path d="M47,217.6c.62-.62,1.49-1.65,2.2-.78,1,1.27-2.84,3.85-3.58,2.41-.3-.58,1-1.16,1.38-1.63" style="fill: #f0f6f7"/>
                    <path d="M80.37,223.55c.62-.61,1.49-1.65,2.19-.78,1,1.28-2.83,3.85-3.57,2.41-.3-.58,1-1.15,1.38-1.63" style="fill: #f0f6f7"/>
                    <path d="M21,209.79c.93,0,2.35,0,2.25,1-.16,1.53-5,.55-4.5-.89.2-.58,1.6-.07,2.25-.11" style="fill: #f0f6f7"/>
                    <path d="M46,199.45c.71.63,1.87,1.52,1,2.15-1.23.93-4.29-3-2.86-3.58.57-.26,1.3,1,1.83,1.43" style="fill: #f0f6f7"/>
                    <path d="M30.57,196.92c.93,0,2.35,0,2.24,1-.16,1.54-5,.55-4.5-.89.21-.58,1.61-.06,2.26-.1" style="fill: #f0f6f7"/>
                    <path d="M65.72,218.67c.6-.64,1.42-1.71,2.16-.86,1.08,1.24-2.68,3.95-3.47,2.54-.32-.58.94-1.19,1.31-1.68" style="fill: #f0f6f7"/>
                    <path d="M33.24,213.74c.6-.64,1.42-1.71,2.16-.86,1.08,1.24-2.69,4-3.48,2.54-.32-.58.95-1.19,1.32-1.68" style="fill: #f0f6f7"/>
                    <path d="M92.6,212c.6-.64,1.42-1.71,2.16-.86,1.08,1.24-2.68,3.95-3.47,2.53-.32-.57.94-1.18,1.31-1.67" style="fill: #f0f6f7"/>
                    <path d="M84.31,201.2c-.76-.56-2-1.34-1.26-2.06,1.1-1,4.57,2.51,3.23,3.29-.53.32-1.39-.88-2-1.23" style="fill: #f0f6f7"/>
                    <path d="M62.17,204.21c-.91.13-2.28.43-2.36-.63-.11-1.56,4.78-1.35,4.54.17-.1.61-1.56.32-2.18.46" style="fill: #f0f6f7"/>
                  </g>
                </g>
                <path d="M28.88,209a558.14,558.14,0,0,1,98.82,2.95" style="fill: none;stroke: #304965;stroke-miterlimit: 10;stroke-width: 0.28862299999999996px"/>
              </g>
              <g style="clip-path: url(#clip-path)">
                <g>
                  <path d="M359.37,81a180.66,180.66,0,0,0-28.15,7.09c-1.61,4.85-3.77,9.7-3.77,14.75q0-6.72,0-13.42c-.83.3-1.66.6-2.48.92A177.3,177.3,0,0,0,300.18,102c.25,2.42.59,4.42,1.19,4.86-1.39-1-2.72-2.09-4-3.22a168.63,168.63,0,0,0-24.55,17.75c-15.88,13.84-31.88,28.32-33.74,50a3.27,3.27,0,0,0,.56,2.53c39.86-29.12,85.73-58.78,119.8-92Q359.42,81.46,359.37,81Z" style="fill: #b6dd4b"/>
                  <path d="M239.63,174a2.26,2.26,0,0,0,.29.23,3.32,3.32,0,0,0,2,.37A134.71,134.71,0,0,0,311,153.26c-1.84-3.77-3.64-7.36-3.94-8.21,2.27,2.13,4.45,4.29,6.71,6.38a125.4,125.4,0,0,0,21.47-18.37c-2.19-3.22-4.18-6.66-4.77-9.75,1,.32,4.84,3.46,8.25,5.85a113.51,113.51,0,0,0,10.79-15,51.31,51.31,0,0,1-7.67-3.84c.72,0,5.59.17,9.75.24,4.86-8.85,8.36-18.58,7.86-28.65C325.36,115.17,279.49,144.83,239.63,174Z" style="fill: #8dbd21"/>
                </g>
                <path d="M233.74,177.9l-.18-.26,33.7-23.47c29.74-20.72,60.51-42.14,87.24-67a25,25,0,0,0,5.27-6.11l.28.15a25.28,25.28,0,0,1-5.34,6.2c-26.74,24.86-57.51,46.3-87.27,67Z" style="fill: #08bd21"/>
                <path d="M332.69,140.6a72.44,72.44,0,0,1-20.76-17.71l.24-.2a72.32,72.32,0,0,0,20.68,17.64Z" style="fill: #08bd21"/>
                <path d="M322.43,149.31a50.28,50.28,0,0,1-21.61-18.93l.27-.16A49.94,49.94,0,0,0,322.56,149Z" style="fill: #08bd21"/>
                <path d="M318.2,117.57c-.36-3.08.39-6.13,1.26-9.26a270.21,270.21,0,0,1,9.09-27l.29.11a268.87,268.87,0,0,0-9.07,26.94c-.87,3.09-1.61,6.11-1.26,9.14Z" style="fill: #08bd21"/>
                <path d="M313.7,120.78c-.86-13.46,3.15-26.24,8.07-40.35l.3.1c-4.91,14.08-8.91,26.83-8.06,40.23Z" style="fill: #08bd21"/>
                <path d="M343.79,97l0-.31A42.91,42.91,0,0,0,366.4,89l.19.26A43.19,43.19,0,0,1,343.79,97Z" style="fill: #08bd21"/>
                <path d="M338.85,101.24l0-.31a166.43,166.43,0,0,0,24.81-4.68l.08.31A166,166,0,0,1,338.85,101.24Z" style="fill: #08bd21"/>
                <path d="M290.09,138.51a28.85,28.85,0,0,1-7.95-15.67c-1.09-5.76-.88-11.58-.68-17.2l.31,0c-.19,5.6-.4,11.39.68,17.12.84,4.43,2.88,10.71,7.86,15.5Z" style="fill: #7c62e3"/>
                <path d="M286.15,141.19a43.79,43.79,0,0,1-9-32.74l.31,0A43.45,43.45,0,0,0,286.4,141Z" style="fill: #7c62e3"/>
                <path d="M303.4,169.83a76.25,76.25,0,0,1-14.59-10A37.57,37.57,0,0,1,278.7,146l.3-.12a37.34,37.34,0,0,0,10,13.76,75.63,75.63,0,0,0,14.53,9.93Z" style="fill: #7c62e3"/>
                <path d="M270.11,152.24A31.49,31.49,0,0,1,261.3,136a44.44,44.44,0,0,1,.31-18l.31.06a44.16,44.16,0,0,0-.31,17.87A31.17,31.17,0,0,0,270.33,152Z" style="fill: #7c62e3"/>
              </g>
            </g>
            <g>
              <g>
                <path d="M109,178.13l-.13,0c-16.93-4.12-31.78-16.83-39.73-34s-8-36.73-.19-52.31l.06-.11.13,0c16.93,4.12,31.78,16.84,39.73,34h0c7.94,17.17,8,36.73.19,52.3ZM69.19,92c-7.72,15.46-7.63,34.85.25,51.9s22.6,29.67,39.38,33.8c7.72-15.46,7.63-34.85-.25-51.9h0C100.68,108.8,86,96.17,69.19,92Z" style="fill: #a7a1e0"/>
                <g>
                  <rect x="91.23" y="95.98" width="0.33" height="83.77" transform="translate(-52.84 56.89) rotate(-27.15)" style="fill: #a7a1e0"/>
                  <rect x="73.66" y="107.41" width="0.33" height="13.16" transform="translate(-57.31 149.32) rotate(-72.15)" style="fill: #a7a1e0"/>
                  <rect x="78.72" y="118.12" width="0.33" height="16.22" transform="translate(-65.45 162.62) rotate(-72.15)" style="fill: #a7a1e0"/>
                  <rect x="80.05" y="123.71" width="0.33" height="27.12" transform="translate(-75.04 171.56) rotate(-72.15)" style="fill: #a7a1e0"/>
                  <rect x="86.92" y="136.9" width="0.33" height="26.38" transform="translate(-82.48 186.97) rotate(-72.15)" style="fill: #a7a1e0"/>
                  <rect x="99" y="157.25" width="0.33" height="14.69" transform="translate(-87.91 208.52) rotate(-72.14)" style="fill: #a7a1e0"/>
                  <rect x="74.93" y="107.95" width="13.16" height="0.33" transform="translate(-46.4 152.52) rotate(-72.13)" style="fill: #a7a1e0"/>
                  <rect x="78.9" y="117.16" width="20.52" height="0.33" transform="translate(-49.86 166.17) rotate(-72.13)" style="fill: #a7a1e0"/>
                  <rect x="83.63" y="127.41" width="25.68" height="0.33" transform="translate(-54.57 180.21) rotate(-72.12)" style="fill: #a7a1e0"/>
                  <rect x="89.9" y="139.79" width="26.38" height="0.33" transform="translate(-61.76 195.07) rotate(-72.11)" style="fill: #a7a1e0"/>
                  <rect x="97.71" y="154.26" width="22.67" height="0.33" transform="translate(-71.4 210.81) rotate(-72.13)" style="fill: #a7a1e0"/>
                </g>
              </g>
              <g>
                <path d="M89,156c16.75,10.26,27.05,26.64,29.1,43.29-15.76,5.74-35,4-51.78-6.25s-27-26.64-29.1-43.29C53,144,72.24,145.76,89,156Z" style="fill: #222c70"/>
                <g>
                  <rect x="79.26" y="133.45" width="0.33" height="83.77" transform="translate(-111.57 151.49) rotate(-58.51)" style="fill: #fff"/>
                  <rect x="45.42" y="163.93" width="13.16" height="0.33" transform="translate(-36.91 16.7) rotate(-13.52)" style="fill: #fff"/>
                  <rect x="54.58" y="171.74" width="16.22" height="0.33" transform="translate(-38.44 19.41) rotate(-13.51)" style="fill: #fff"/>
                  <rect x="56.02" y="180.48" width="27.12" height="0.33" transform="translate(-40.3 21.27) rotate(-13.52)" style="fill: #fff"/>
                  <rect x="68.92" y="187.85" width="26.38" height="0.33" transform="translate(-41.68 24.41) rotate(-13.52)" style="fill: #fff"/>
                  <rect x="92.64" y="193.95" width="14.69" height="0.33" transform="translate(-42.6 28.74) rotate(-13.52)" style="fill: #fff"/>
                  <rect x="55.34" y="148.49" width="0.33" height="13.16" transform="translate(-34.69 17.26) rotate(-13.51)" style="fill: #fff"/>
                  <rect x="66.66" y="148.69" width="0.33" height="20.52" transform="translate(-35.29 20.02) rotate(-13.51)" style="fill: #fff"/>
                  <rect x="78.24" y="151.06" width="0.33" height="25.68" transform="translate(-36.13 22.86) rotate(-13.51)" style="fill: #fff"/>
                  <rect x="90.34" y="157.83" width="0.33" height="26.38" transform="translate(-37.45 25.88) rotate(-13.51)" style="fill: #fff"/>
                  <rect x="102.95" y="168.96" width="0.33" height="22.67" transform="translate(-39.28 29.09) rotate(-13.52)" style="fill: #fff"/>
                </g>
              </g>
            </g>
            <g>
              <g>
                <path d="M251.26,112.56c-1,0-2.09,0-3.14-.09H248l0-.13c-2.89-17.19,2.94-35.85,15.59-49.93s30.59-21.85,48-20.8h.13l0,.13c2.89,17.19-2.94,35.85-15.59,49.92h0C284.22,104.89,267.65,112.56,251.26,112.56Zm-3-.42c17.25,1,35-6.73,47.58-20.7h0c12.56-14,18.36-32.46,15.54-49.52-17.25-1-35,6.74-47.59,20.71S245.45,95.09,248.28,112.14Z" style="fill: #a7a1e0"/>
                <g>
                  <polygon points="251.46 112.77 251.21 112.56 304.63 48.04 304.88 48.25 251.46 112.77" style="fill: #a7a1e0"/>
                  <rect x="292.89" y="48.26" width="0.33" height="13.16" transform="translate(-3.85 27.68) rotate(-5.37)" style="fill: #a7a1e0"/>
                  <rect x="283.64" y="56.21" width="0.33" height="16.22" transform="translate(-4.78 26.86) rotate(-5.37)" style="fill: #a7a1e0"/>
                  <rect x="274.02" y="56.34" width="0.33" height="27.12" transform="translate(-5.34 26) rotate(-5.38)" style="fill: #a7a1e0"/>
                  <rect x="264.94" y="68.07" width="0.33" height="26.38" transform="translate(-6.45 25.18) rotate(-5.37)" style="fill: #a7a1e0"/>
                  <rect x="256.38" y="90.74" width="0.33" height="14.69" transform="translate(-8.05 24.44) rotate(-5.37)" style="fill: #a7a1e0"/>
                  <rect x="294.91" y="59.42" width="13.16" height="0.33" transform="translate(-4.26 28.54) rotate(-5.38)" style="fill: #a7a1e0"/>
                  <rect x="285.78" y="70.08" width="20.52" height="0.33" transform="translate(-5.27 28) rotate(-5.37)" style="fill: #a7a1e0"/>
                  <rect x="276.66" y="80.84" width="25.68" height="0.33" transform="translate(-6.31 27.43) rotate(-5.37)" style="fill: #a7a1e0"/>
                  <rect x="267.55" y="91.81" width="26.38" height="0.33" transform="translate(-7.39 26.75) rotate(-5.38)" style="fill: #a7a1e0"/>
                  <rect x="258.45" y="102.98" width="22.67" height="0.33" transform="translate(-8.49 25.77) rotate(-5.38)" style="fill: #a7a1e0"/>
                </g>
              </g>
              <g>
                <path d="M260.41,85.35c-2.82,19.43-13.81,35.36-28.3,43.81-11.49-12.22-17.5-30.62-14.68-50s13.81-35.37,28.3-43.82C257.22,47.52,263.23,65.91,260.41,85.35Z" style="fill: #edffbd"/>
                <g>
                  <rect x="197.01" y="84.02" width="83.77" height="0.33" transform="translate(121.09 308.41) rotate(-81.69)" style="fill: #08bd21"/>
                  <rect x="238.25" y="47.96" width="0.33" height="13.16" transform="translate(14.73 153.44) rotate(-36.74)" style="fill: #08bd21"/>
                  <rect x="235.28" y="59.34" width="0.33" height="16.22" transform="translate(6.41 154.23) rotate(-36.74)" style="fill: #08bd21"/>
                  <rect x="229.97" y="63.66" width="0.33" height="27.12" transform="translate(-0.48 153.01) rotate(-36.74)" style="fill: #08bd21"/>
                  <rect x="228.13" y="78.46" width="0.33" height="26.38" transform="translate(-9.48 154.77) rotate(-36.74)" style="fill: #08bd21"/>
                  <rect x="229.58" y="103.13" width="0.33" height="14.69" transform="translate(-20.45 159.35) rotate(-36.73)" style="fill: #edb2bb"/>
                  <rect x="241.5" y="54.04" width="13.16" height="0.33" transform="translate(16.84 159.15) rotate(-36.73)" style="fill: #08bd21"/>
                  <rect x="238.72" y="65.98" width="20.52" height="0.33" transform="translate(9.91 162.11) rotate(-36.75)" style="fill: #08bd21"/>
                  <rect x="236.15" y="78.57" width="25.68" height="0.33" transform="translate(2.36 164.56) rotate(-36.73)" style="fill: #08bd21"/>
                  <rect x="234.03" y="92.49" width="26.38" height="0.33" transform="translate(-6.33 166.27) rotate(-36.73)" style="fill: #edb2bb"/>
                  <rect x="232.35" y="107.74" width="22.67" height="0.33" transform="translate(-16.13 167.24) rotate(-36.75)" style="fill: #edb2bb"/>
                </g>
              </g>
            </g>
          </g>
          <g>
            <g>
              <path d="M259.52,14.54l1.23,1.79a.58.58,0,0,0,.28.2l2.07.61a.51.51,0,0,1,.26.8L262,19.66a.46.46,0,0,0-.1.32l.06,2.17a.51.51,0,0,1-.68.49l-2-.73a.5.5,0,0,0-.34,0l-2.05.73a.5.5,0,0,1-.67-.49l.06-2.17a.52.52,0,0,0-.11-.32l-1.32-1.72a.51.51,0,0,1,.26-.8l2.08-.61a.55.55,0,0,0,.27-.2l1.23-1.79A.5.5,0,0,1,259.52,14.54Z" style="fill: #edffbd"/>
              <path d="M274.8,14.54,276,16.33a.63.63,0,0,0,.28.2l2.08.61a.51.51,0,0,1,.26.8l-1.33,1.72a.51.51,0,0,0-.1.32l.06,2.17a.51.51,0,0,1-.68.49l-2-.73a.5.5,0,0,0-.34,0l-2,.73a.51.51,0,0,1-.68-.49l.06-2.17a.52.52,0,0,0-.11-.32l-1.32-1.72a.51.51,0,0,1,.26-.8l2.08-.61a.55.55,0,0,0,.27-.2L274,14.54A.51.51,0,0,1,274.8,14.54Z" style="fill: #edffbd"/>
              <path d="M290.61,14.54l1.23,1.79a.6.6,0,0,0,.27.2l2.08.61a.51.51,0,0,1,.26.8l-1.32,1.72a.46.46,0,0,0-.1.32l.06,2.17a.51.51,0,0,1-.68.49l-2-.73a.53.53,0,0,0-.35,0l-2,.73a.51.51,0,0,1-.68-.49l.06-2.17a.46.46,0,0,0-.1-.32l-1.32-1.72a.51.51,0,0,1,.26-.8l2.08-.61a.6.6,0,0,0,.27-.2l1.23-1.79A.5.5,0,0,1,290.61,14.54Z" style="fill: #edffbd"/>
              <path d="M306.43,14.54l1.23,1.79a.55.55,0,0,0,.27.2l2.08.61a.51.51,0,0,1,.26.8L309,19.66a.52.52,0,0,0-.11.32l.06,2.17a.51.51,0,0,1-.68.49l-2-.73a.5.5,0,0,0-.34,0l-2,.73a.51.51,0,0,1-.68-.49l.06-2.17a.51.51,0,0,0-.1-.32l-1.33-1.72a.51.51,0,0,1,.26-.8l2.08-.61a.63.63,0,0,0,.28-.2l1.22-1.79A.51.51,0,0,1,306.43,14.54Z" style="fill: #edffbd"/>
              <path d="M321.7,14.54l1.23,1.79a.55.55,0,0,0,.27.2l2.08.61a.51.51,0,0,1,.26.8l-1.32,1.72a.46.46,0,0,0-.1.32l.05,2.17a.5.5,0,0,1-.67.49l-2.05-.73a.5.5,0,0,0-.34,0l-2,.73a.51.51,0,0,1-.68-.49l.06-2.17a.46.46,0,0,0-.1-.32L317,17.94a.51.51,0,0,1,.26-.8l2.07-.61a.58.58,0,0,0,.28-.2l1.23-1.79A.5.5,0,0,1,321.7,14.54Z" style="fill: #edffbd"/>
            </g>
            <g>
              <path d="M233.54,23.52H209a1.33,1.33,0,0,1-1.33-1.32h0A1.34,1.34,0,0,1,209,20.87h24.52a1.33,1.33,0,0,1,1.32,1.33h0A1.32,1.32,0,0,1,233.54,23.52Z" style="fill: #e2ecf9"/>
              <path d="M233.54,29.16H209a1.34,1.34,0,0,1-1.33-1.33h0A1.33,1.33,0,0,1,209,26.51h24.52a1.32,1.32,0,0,1,1.32,1.32h0A1.33,1.33,0,0,1,233.54,29.16Z" style="fill: #e2ecf9"/>
              <path d="M233.54,34.79H209a1.33,1.33,0,0,1-1.33-1.33h0A1.33,1.33,0,0,1,209,32.14h24.52a1.32,1.32,0,0,1,1.32,1.32h0A1.32,1.32,0,0,1,233.54,34.79Z" style="fill: #e2ecf9"/>
            </g>
            <g>
              <path d="M93.05,64.28H68.53A1.32,1.32,0,0,1,67.21,63h0a1.32,1.32,0,0,1,1.32-1.32H93.05A1.33,1.33,0,0,1,94.38,63h0A1.33,1.33,0,0,1,93.05,64.28Z" style="fill: #e2ecf9"/>
              <path d="M93.05,69.91H68.53a1.32,1.32,0,0,1-1.32-1.32h0a1.32,1.32,0,0,1,1.32-1.33H93.05a1.33,1.33,0,0,1,1.33,1.33h0A1.33,1.33,0,0,1,93.05,69.91Z" style="fill: #e2ecf9"/>
              <path d="M85.76,75.54H68.53a1.32,1.32,0,0,1-1.32-1.32h0a1.33,1.33,0,0,1,1.32-1.33H85.76a1.34,1.34,0,0,1,1.33,1.33h0A1.33,1.33,0,0,1,85.76,75.54Z" style="fill: #e2ecf9"/>
            </g>
            <g>
              <g style="opacity: 0.47000000000000003">
                <rect x="105.31" y="36.78" width="50.36" height="32.47" style="fill: #e2ecf9"/>
                <polygon points="105.31 36.78 130.49 53.01 155.67 36.78 105.31 36.78" style="fill: #cadef9"/>
              </g>
              <g>
                <rect x="111.94" y="43.4" width="50.36" height="32.47" style="fill: #e2ecf9"/>
                <polygon points="111.94 43.41 137.12 59.64 162.3 43.41 111.94 43.41" style="fill: #cadef9"/>
              </g>
              <path d="M166.94,44.9a6.13,6.13,0,1,1-6.13-6.13A6.14,6.14,0,0,1,166.94,44.9Z" style="fill: #8dbd21"/>
            </g>
            <g>
              <g>
                <g>
                  <rect x="142.75" width="40.09" height="28.83" rx="2.71" style="fill: #222c70"/>
                  <path d="M170.58,28.16v4.57a.85.85,0,0,0,1.46.6l5.17-5.17Z" style="fill: #222c70"/>
                </g>
                <g>
                  <circle cx="154.36" cy="14.25" r="2.31" style="fill: #e2ecf9"/>
                  <circle cx="162.68" cy="14.25" r="2.31" style="fill: #e2ecf9"/>
                  <circle cx="171.23" cy="14.25" r="2.31" style="fill: #e2ecf9"/>
                </g>
              </g>
              <g>
                <g>
                  <rect x="176.22" y="35.45" width="40.09" height="28.83" rx="2.71" transform="translate(392.52 99.73) rotate(180)" style="fill: #8dbd21"/>
                  <path d="M188.48,63.62v4.56a.85.85,0,0,1-1.46.6l-5.17-5.16Z" style="fill: #08bd21"/>
                </g>
                <g>
                  <circle cx="204.7" cy="49.7" r="2.31" style="fill: #fff"/>
                  <circle cx="196.38" cy="49.7" r="2.31" style="fill: #fff"/>
                  <circle cx="187.83" cy="49.7" r="2.31" style="fill: #fff"/>
                </g>
              </g>
            </g>
          </g>
          <g>
            <g>
              <g>
                <g>
                  <path d="M296.4,215.07V89.86A5.9,5.9,0,0,0,290.5,84H87.19a5.9,5.9,0,0,0-5.9,5.89V215.07Z" style="fill: #222c70"/>
                  <path d="M81.79,215.3v18.11a6.29,6.29,0,0,0,6.27,6.31H289.89a6.3,6.3,0,0,0,6.27-6.31V215.3Z" style="fill: #dae3eb;stroke: #222c70;stroke-miterlimit: 10;stroke-width: 0.935781px"/>
                  <circle cx="188.85" cy="225.95" r="5.62" style="fill: #fff"/>
                  <path d="M226,266.39s-1.56-.78-3.36-1.45-4.23-1.63-5.58-2.28c-2.38-1.14-2.59-1.89-3.48-5.79-1-4.25-1.88-13.23-2.25-17.15h-45c-.37,3.92-1.28,12.9-2.25,17.15-.89,3.9-1.09,4.65-3.47,5.79-1.35.65-3.62,1.54-5.52,2.25h0c-1.83.69-3.32,1.22-3.32,1.22s-1.45.81.88.92h72.41C227.24,267.09,226,266.39,226,266.39Z" style="fill: #2d3b96"/>
                  <path d="M212.76,250.39c-.2-1.86-1.28-9.47-1.39-10.67H166.32c-.11,1.2,0,1.79-.2,3.65Z" style="fill: #222c70"/>
                  <rect x="91.29" y="94.07" width="195.11" height="109.87" style="fill: #ebf5ff"/>
                </g>
                <g>
                  <rect x="91.29" y="94.07" width="195.11" height="10.9" style="fill: #cadef9"/>
                  <rect x="241.71" y="107.3" width="41.02" height="53.36" style="fill: #fff"/>
                  <rect x="91.8" y="107.37" width="148.06" height="96.25" style="fill: #e2ecf9"/>
                  <rect x="117.75" y="96.9" width="90.75" height="5.23" style="fill: #aad2fd"/>
                  <rect x="108.54" y="96.9" width="5.6" height="5.23" style="fill: #fff"/>
                  <g>
                    <path d="M261.6,101.74v-.3a1.84,1.84,0,0,0-1.84-1.85h-1.84a1.84,1.84,0,0,0-1.84,1.85v.3Z" style="fill: #fff"/>
                    <path d="M260.07,97.45a1.23,1.23,0,1,1-1.23-1.23A1.23,1.23,0,0,1,260.07,97.45Z" style="fill: #fff"/>
                  </g>
                  <path d="M263,101.61a1.64,1.64,0,1,1-1.64-1.64A1.64,1.64,0,0,1,263,101.61Z" style="fill: #08bd21"/>
                  <path d="M272.35,96.54h-5a.47.47,0,0,0-.47.46v3.91a.47.47,0,0,0,.47.47h.31v1.1l1.1-1.1h3.59a.47.47,0,0,0,.47-.47V97A.47.47,0,0,0,272.35,96.54Z" style="fill: #fff"/>
                  <path d="M274.36,101.61a1.64,1.64,0,1,1-1.63-1.64A1.63,1.63,0,0,1,274.36,101.61Z" style="fill: #08bd21"/>
                  <rect x="241.71" y="162.83" width="41.02" height="38.34" style="fill: #fff"/>
                  <rect x="241.71" y="184.22" width="41.02" height="17.1" style="fill: #cadef9"/>
                  <g>
                    <rect x="255.25" y="117.34" width="9.8" height="2.27" style="fill: #aad2fd"/>
                    <rect x="244.47" y="109.99" width="9.8" height="2.27" style="fill: #aad2fd"/>
                    <rect x="244.47" y="155.23" width="9.8" height="2.27" style="fill: #aad2fd"/>
                    <rect x="264.56" y="109.99" width="3.35" height="2.27" style="fill: #aad2fd"/>
                    <rect x="269.71" y="109.99" width="3.35" height="2.27" style="fill: #aad2fd"/>
                    <rect x="244.47" y="165.52" width="9.8" height="2.27" style="fill: #aad2fd"/>
                    <rect x="264.56" y="165.52" width="3.35" height="2.27" style="fill: #aad2fd"/>
                    <rect x="269.71" y="165.52" width="3.35" height="2.27" style="fill: #aad2fd"/>
                    <rect x="255.25" y="121.58" width="17.31" height="2.27" style="fill: #aad2fd"/>
                    <path d="M252.56,120.43a4,4,0,1,1-4-4A4,4,0,0,1,252.56,120.43Z" style="fill: #aad2fd"/>
                    <rect x="255.25" y="130.4" width="9.8" height="2.27" style="fill: #aad2fd"/>
                    <rect x="255.25" y="134.65" width="17.31" height="2.27" style="fill: #aad2fd"/>
                    <path d="M252.56,133.5a4,4,0,1,1-4-4A4,4,0,0,1,252.56,133.5Z" style="fill: #aad2fd"/>
                    <rect x="255.25" y="143.47" width="9.8" height="2.27" style="fill: #aad2fd"/>
                    <rect x="255.25" y="147.72" width="17.31" height="2.27" style="fill: #aad2fd"/>
                    <rect x="255.25" y="173.85" width="9.8" height="2.27" style="fill: #aad2fd"/>
                    <rect x="255.25" y="178.09" width="17.31" height="2.27" style="fill: #aad2fd"/>
                    <path d="M252.56,146.56a4,4,0,1,1-4-4A4,4,0,0,1,252.56,146.56Z" style="fill: #aad2fd"/>
                    <rect x="244.64" y="172.52" width="7.84" height="7.84" style="fill: #aad2fd"/>
                  </g>
                </g>
              </g>
              <g>
                <g>
                  <rect x="174.82" y="154.39" width="132.49" height="41.17" style="fill: #fff"/>
                  <g>
                    <rect x="231.67" y="161.54" width="45.84" height="3.1" style="fill: #aad2fd"/>
                    <rect x="231.67" y="168.18" width="52.29" height="2.32" style="fill: #aad2fd"/>
                    <rect x="231.45" y="173.61" width="45.65" height="2.34" style="fill: #aad2fd"/>
                    <rect x="231.45" y="178.86" width="50.83" height="2.32" style="fill: #aad2fd"/>
                    <rect x="231.45" y="184.52" width="11.36" height="2.32" style="fill: #aad2fd"/>
                  </g>
                  <rect x="181.24" y="161.7" width="46.13" height="27.27" style="fill: #aad2fd"/>
                </g>
                <g>
                  <line x1="181.24" y1="161.7" x2="227.37" y2="188.97" style="fill: none;stroke: #fff;stroke-miterlimit: 10;stroke-width: 0.331333px"/>
                  <line x1="227.37" y1="161.7" x2="181.24" y2="188.97" style="fill: none;stroke: #fff;stroke-miterlimit: 10;stroke-width: 0.331333px"/>
                </g>
              </g>
              <g>
                <rect x="96.37" y="111" width="73.56" height="84.49" style="fill: #fff"/>
                <rect x="100.34" y="115.56" width="65.6" height="33.54" style="fill: #eff3f9"/>
                <g>
                  <rect x="100.34" y="153.08" width="65.6" height="37.77" style="fill: #eff3f9"/>
                  <g>
                    <polygon points="165.94 190.85 126.25 190.71 145.4 172.29 165.94 190.85" style="fill: #aad2fd"/>
                    <polygon points="159.32 190.85 100.41 190.64 128.83 163.31 159.32 190.85" style="fill: #aad2fd"/>
                    <path d="M161,159.87a3.15,3.15,0,1,1-3.15-3.15A3.15,3.15,0,0,1,161,159.87Z" style="fill: #aad2fd"/>
                  </g>
                </g>
              </g>
              <g>
                <rect x="174.56" y="111" width="60.97" height="38.1" style="fill: #fff"/>
                <g>
                  <rect x="179.98" y="118.46" width="45.84" height="3.1" style="fill: #aad2fd"/>
                  <rect x="179.98" y="125.11" width="52.29" height="2.32" style="fill: #aad2fd"/>
                  <rect x="179.77" y="130.54" width="45.65" height="2.34" style="fill: #aad2fd"/>
                  <rect x="179.77" y="135.79" width="50.83" height="2.32" style="fill: #aad2fd"/>
                  <rect x="179.77" y="141.44" width="11.36" height="2.32" style="fill: #aad2fd"/>
                </g>
              </g>
            </g>
            <g>
              <circle cx="308.58" cy="245.02" r="26.34" style="fill: #8dbd21"/>
              <path d="M322,238.89h0a7,7,0,0,0-3.36-5l-.05,0a7,7,0,0,0-8.18.77l-1.83,1.61-1.82-1.61a7,7,0,0,0-8.18-.77l-.06,0a7,7,0,0,0-3.35,5h0a7,7,0,0,0,1.8,5.8l11.61,12.45,11.62-12.45A7,7,0,0,0,322,238.89Z" style="fill: #fff"/>
            </g>
          </g>
        </g>
      </g>
    </g>
  </g>
</svg>
